<mxfile host="app.diagrams.net" modified="2021-04-20T09:26:36.996Z" agent="5.0 (Windows NT 10.0; Win64; x64) AppleWebKit/537.36 (KHTML, like Gecko) Chrome/89.0.4389.114 Safari/537.36" etag="sWwOOXhlC6DCIpO57_GD" version="14.5.8" type="github">
  <diagram id="WgHCFiwRcnR5_1upa-gh" name="Page-1">
    <mxGraphModel dx="1038" dy="548" grid="1" gridSize="10" guides="1" tooltips="1" connect="1" arrows="1" fold="1" page="1" pageScale="1" pageWidth="827" pageHeight="1169" math="0" shadow="0">
      <root>
        <mxCell id="0" />
        <mxCell id="1" parent="0" />
        <mxCell id="t1viPGA3aEMi5Ob9hE66-25" style="edgeStyle=orthogonalEdgeStyle;rounded=0;orthogonalLoop=1;jettySize=auto;html=1;entryX=0.5;entryY=0;entryDx=0;entryDy=0;strokeColor=#000000;fillColor=#CC0000;" edge="1" parent="1" source="t1viPGA3aEMi5Ob9hE66-1" target="t1viPGA3aEMi5Ob9hE66-23">
          <mxGeometry relative="1" as="geometry" />
        </mxCell>
        <mxCell id="t1viPGA3aEMi5Ob9hE66-1" value="Raw Data" style="rounded=1;whiteSpace=wrap;html=1;" vertex="1" parent="1">
          <mxGeometry x="354" y="30" width="120" height="30" as="geometry" />
        </mxCell>
        <mxCell id="t1viPGA3aEMi5Ob9hE66-2" value="Train Data Set 1" style="rounded=1;whiteSpace=wrap;html=1;" vertex="1" parent="1">
          <mxGeometry x="119" y="121" width="120" height="30" as="geometry" />
        </mxCell>
        <mxCell id="t1viPGA3aEMi5Ob9hE66-4" value="Train Data Set n-1" style="rounded=1;whiteSpace=wrap;html=1;" vertex="1" parent="1">
          <mxGeometry x="429" y="121" width="120" height="30" as="geometry" />
        </mxCell>
        <mxCell id="t1viPGA3aEMi5Ob9hE66-5" value="Basic Learner 1" style="rounded=1;whiteSpace=wrap;html=1;" vertex="1" parent="1">
          <mxGeometry x="119" y="234" width="120" height="60" as="geometry" />
        </mxCell>
        <mxCell id="t1viPGA3aEMi5Ob9hE66-6" value="Basic Learner n-1" style="rounded=1;whiteSpace=wrap;html=1;" vertex="1" parent="1">
          <mxGeometry x="429" y="234" width="120" height="60" as="geometry" />
        </mxCell>
        <mxCell id="t1viPGA3aEMi5Ob9hE66-8" value="Train Data Set n" style="rounded=1;whiteSpace=wrap;html=1;" vertex="1" parent="1">
          <mxGeometry x="589" y="121" width="120" height="30" as="geometry" />
        </mxCell>
        <mxCell id="t1viPGA3aEMi5Ob9hE66-9" value="Basic Learner n" style="rounded=1;whiteSpace=wrap;html=1;" vertex="1" parent="1">
          <mxGeometry x="589" y="234" width="120" height="60" as="geometry" />
        </mxCell>
        <mxCell id="t1viPGA3aEMi5Ob9hE66-10" value="Basic Learner 1" style="rounded=1;whiteSpace=wrap;html=1;" vertex="1" parent="1">
          <mxGeometry x="119" y="375" width="120" height="60" as="geometry" />
        </mxCell>
        <mxCell id="t1viPGA3aEMi5Ob9hE66-11" value="Basic Learner n-1" style="rounded=1;whiteSpace=wrap;html=1;" vertex="1" parent="1">
          <mxGeometry x="429" y="375" width="120" height="60" as="geometry" />
        </mxCell>
        <mxCell id="t1viPGA3aEMi5Ob9hE66-13" value="Basic Learner n" style="rounded=1;whiteSpace=wrap;html=1;" vertex="1" parent="1">
          <mxGeometry x="589" y="375" width="120" height="60" as="geometry" />
        </mxCell>
        <mxCell id="t1viPGA3aEMi5Ob9hE66-14" value="……" style="text;html=1;strokeColor=none;fillColor=none;align=center;verticalAlign=middle;whiteSpace=wrap;rounded=0;fontStyle=1" vertex="1" parent="1">
          <mxGeometry x="314" y="126" width="40" height="20" as="geometry" />
        </mxCell>
        <mxCell id="t1viPGA3aEMi5Ob9hE66-15" value="……" style="text;html=1;strokeColor=none;fillColor=none;align=center;verticalAlign=middle;whiteSpace=wrap;rounded=0;fontStyle=1" vertex="1" parent="1">
          <mxGeometry x="314" y="254" width="40" height="20" as="geometry" />
        </mxCell>
        <mxCell id="t1viPGA3aEMi5Ob9hE66-17" value="……" style="text;html=1;strokeColor=none;fillColor=none;align=center;verticalAlign=middle;whiteSpace=wrap;rounded=0;fontStyle=1" vertex="1" parent="1">
          <mxGeometry x="314" y="395" width="40" height="20" as="geometry" />
        </mxCell>
        <mxCell id="t1viPGA3aEMi5Ob9hE66-18" value="" style="endArrow=none;html=1;entryX=1;entryY=0;entryDx=0;entryDy=0;fillColor=#CC0000;strokeColor=#CC0000;" edge="1" parent="1" target="t1viPGA3aEMi5Ob9hE66-11">
          <mxGeometry width="50" height="50" relative="1" as="geometry">
            <mxPoint x="429" y="435" as="sourcePoint" />
            <mxPoint x="479" y="385" as="targetPoint" />
          </mxGeometry>
        </mxCell>
        <mxCell id="t1viPGA3aEMi5Ob9hE66-19" value="" style="endArrow=none;html=1;entryX=0;entryY=0;entryDx=0;entryDy=0;exitX=1;exitY=1;exitDx=0;exitDy=0;fillColor=#CC0000;strokeColor=#CC0000;" edge="1" parent="1" source="t1viPGA3aEMi5Ob9hE66-11" target="t1viPGA3aEMi5Ob9hE66-11">
          <mxGeometry width="50" height="50" relative="1" as="geometry">
            <mxPoint x="370" y="495" as="sourcePoint" />
            <mxPoint x="420" y="445" as="targetPoint" />
          </mxGeometry>
        </mxCell>
        <mxCell id="t1viPGA3aEMi5Ob9hE66-20" value="Individual Learner 1" style="rounded=1;whiteSpace=wrap;html=1;" vertex="1" parent="1">
          <mxGeometry x="194" y="494" width="120" height="60" as="geometry" />
        </mxCell>
        <mxCell id="t1viPGA3aEMi5Ob9hE66-21" value="……" style="rounded=1;whiteSpace=wrap;html=1;" vertex="1" parent="1">
          <mxGeometry x="354" y="494" width="120" height="60" as="geometry" />
        </mxCell>
        <mxCell id="t1viPGA3aEMi5Ob9hE66-22" value="Individual Learner m" style="rounded=1;whiteSpace=wrap;html=1;" vertex="1" parent="1">
          <mxGeometry x="520" y="494" width="120" height="60" as="geometry" />
        </mxCell>
        <mxCell id="t1viPGA3aEMi5Ob9hE66-34" style="edgeStyle=orthogonalEdgeStyle;rounded=0;orthogonalLoop=1;jettySize=auto;html=1;exitX=0.5;exitY=1;exitDx=0;exitDy=0;entryX=0.5;entryY=0;entryDx=0;entryDy=0;strokeColor=#000000;fillColor=#CC0000;" edge="1" parent="1" source="t1viPGA3aEMi5Ob9hE66-23" target="t1viPGA3aEMi5Ob9hE66-26">
          <mxGeometry relative="1" as="geometry" />
        </mxCell>
        <mxCell id="t1viPGA3aEMi5Ob9hE66-23" value="" style="rounded=0;whiteSpace=wrap;html=1;fillColor=none;dashed=1;" vertex="1" parent="1">
          <mxGeometry x="109" y="106" width="610" height="60" as="geometry" />
        </mxCell>
        <mxCell id="t1viPGA3aEMi5Ob9hE66-37" style="edgeStyle=orthogonalEdgeStyle;rounded=0;orthogonalLoop=1;jettySize=auto;html=1;exitX=0.5;exitY=1;exitDx=0;exitDy=0;entryX=0.5;entryY=0;entryDx=0;entryDy=0;strokeColor=#000000;fillColor=#CC0000;" edge="1" parent="1" source="t1viPGA3aEMi5Ob9hE66-26" target="t1viPGA3aEMi5Ob9hE66-35">
          <mxGeometry relative="1" as="geometry" />
        </mxCell>
        <mxCell id="t1viPGA3aEMi5Ob9hE66-26" value="" style="rounded=0;whiteSpace=wrap;html=1;fillColor=none;dashed=1;" vertex="1" parent="1">
          <mxGeometry x="109" y="210" width="610" height="90" as="geometry" />
        </mxCell>
        <mxCell id="t1viPGA3aEMi5Ob9hE66-38" style="edgeStyle=orthogonalEdgeStyle;rounded=0;orthogonalLoop=1;jettySize=auto;html=1;exitX=0.5;exitY=1;exitDx=0;exitDy=0;strokeColor=#000000;fillColor=#CC0000;" edge="1" parent="1" source="t1viPGA3aEMi5Ob9hE66-27" target="t1viPGA3aEMi5Ob9hE66-36">
          <mxGeometry relative="1" as="geometry" />
        </mxCell>
        <mxCell id="t1viPGA3aEMi5Ob9hE66-27" value="" style="rounded=0;whiteSpace=wrap;html=1;fillColor=none;dashed=1;" vertex="1" parent="1">
          <mxGeometry x="109" y="340" width="610" height="110" as="geometry" />
        </mxCell>
        <mxCell id="t1viPGA3aEMi5Ob9hE66-39" style="edgeStyle=orthogonalEdgeStyle;rounded=0;orthogonalLoop=1;jettySize=auto;html=1;exitX=0.5;exitY=1;exitDx=0;exitDy=0;entryX=0.5;entryY=0;entryDx=0;entryDy=0;strokeColor=#000000;fillColor=#CC0000;" edge="1" parent="1" source="t1viPGA3aEMi5Ob9hE66-28" target="t1viPGA3aEMi5Ob9hE66-30">
          <mxGeometry relative="1" as="geometry" />
        </mxCell>
        <mxCell id="t1viPGA3aEMi5Ob9hE66-28" value="" style="rounded=0;whiteSpace=wrap;html=1;fillColor=none;dashed=1;" vertex="1" parent="1">
          <mxGeometry x="169" y="470" width="490" height="90" as="geometry" />
        </mxCell>
        <mxCell id="t1viPGA3aEMi5Ob9hE66-30" value="Fault&amp;nbsp; 3" style="rounded=1;whiteSpace=wrap;html=1;" vertex="1" parent="1">
          <mxGeometry x="371" y="590" width="86" height="30" as="geometry" />
        </mxCell>
        <mxCell id="t1viPGA3aEMi5Ob9hE66-40" style="edgeStyle=orthogonalEdgeStyle;rounded=0;orthogonalLoop=1;jettySize=auto;html=1;entryX=1;entryY=0.5;entryDx=0;entryDy=0;strokeColor=#000000;fillColor=#CC0000;" edge="1" parent="1" source="t1viPGA3aEMi5Ob9hE66-31" target="t1viPGA3aEMi5Ob9hE66-28">
          <mxGeometry relative="1" as="geometry" />
        </mxCell>
        <mxCell id="t1viPGA3aEMi5Ob9hE66-31" value="Sample to be diagnosed" style="rounded=1;whiteSpace=wrap;html=1;" vertex="1" parent="1">
          <mxGeometry x="740" y="495" width="150" height="40" as="geometry" />
        </mxCell>
        <mxCell id="t1viPGA3aEMi5Ob9hE66-32" value="Bootstrap" style="text;html=1;strokeColor=none;fillColor=none;align=center;verticalAlign=middle;whiteSpace=wrap;rounded=0;dashed=1;" vertex="1" parent="1">
          <mxGeometry x="450" y="70" width="40" height="20" as="geometry" />
        </mxCell>
        <mxCell id="t1viPGA3aEMi5Ob9hE66-33" value="Base Learners generation" style="text;html=1;strokeColor=none;fillColor=none;align=center;verticalAlign=middle;whiteSpace=wrap;rounded=0;dashed=1;" vertex="1" parent="1">
          <mxGeometry x="336" y="210" width="156" height="20" as="geometry" />
        </mxCell>
        <mxCell id="t1viPGA3aEMi5Ob9hE66-35" value="Individual Learners Selection" style="text;html=1;strokeColor=none;fillColor=none;align=center;verticalAlign=middle;whiteSpace=wrap;rounded=0;dashed=1;" vertex="1" parent="1">
          <mxGeometry x="317" y="340" width="194" height="20" as="geometry" />
        </mxCell>
        <mxCell id="t1viPGA3aEMi5Ob9hE66-36" value="Individual Learners Ensemble" style="text;html=1;strokeColor=none;fillColor=none;align=center;verticalAlign=middle;whiteSpace=wrap;rounded=0;dashed=1;" vertex="1" parent="1">
          <mxGeometry x="317" y="470" width="194" height="20" as="geometry" />
        </mxCell>
      </root>
    </mxGraphModel>
  </diagram>
</mxfile>
